<?xml version="1.0" standalone="no"?>
<!DOCTYPE svg PUBLIC "-//W3C//DTD SVG 20010904//EN"
 "http://www.w3.org/TR/2001/REC-SVG-20010904/DTD/svg10.dtd">
<svg version="1.0" xmlns="http://www.w3.org/2000/svg"
 width="128.000000pt" height="128.000000pt" viewBox="0 0 128.000000 128.000000"
 preserveAspectRatio="xMidYMid meet">
<metadata>
Created by potrace 1.14, written by Peter Selinger 2001-2017
</metadata>
<g transform="translate(0.000000,128.000000) scale(0.100000,-0.100000)"
fill="#000000" stroke="none">
<path d="M425 1160 c-10 -11 -25 -20 -34 -20 -24 -1 -59 -31 -73 -65 -9 -22
-20 -30 -38 -30 -20 0 -26 -6 -28 -27 -2 -15 -24 -48 -52 -77 -77 -80 -92
-156 -55 -281 7 -26 46 -72 75 -90 35 -22 35 -22 35 -91 0 -38 4 -69 9 -69 4
0 6 -6 3 -14 -3 -8 -3 -17 1 -20 3 -4 7 -12 8 -19 1 -7 5 -25 8 -41 7 -36 -7
-64 -34 -68 -12 -2 -21 -7 -21 -12 0 -10 15 -15 66 -21 41 -5 675 -6 701 -1
12 2 38 7 59 10 20 3 45 11 56 16 10 6 19 8 19 5 0 -4 7 0 15 9 8 8 15 18 15
23 0 11 -40 36 -47 29 -3 -3 -15 0 -27 6 -11 7 -23 13 -26 14 -25 6 -79 36
-94 53 -10 11 -20 37 -22 58 -4 49 -11 82 -25 113 -31 68 -66 133 -80 149 -9
10 -19 44 -22 80 -9 85 -45 147 -126 214 -12 9 -26 17 -31 17 -6 0 -19 9 -30
20 -11 11 -20 18 -20 15 0 -3 -9 3 -21 14 -12 11 -29 18 -39 16 -11 -2 -20 4
-23 16 -3 10 -19 27 -36 36 -17 10 -31 26 -31 36 0 23 -13 22 -35 -3z"/>
</g>
</svg>
